<?xml version="1.0" encoding="utf-8"?>
<!-- Generator: Adobe Illustrator 23.0.6, SVG Export Plug-In . SVG Version: 6.00 Build 0)  -->
<svg version="1.1" id="Layer_1" xmlns="http://www.w3.org/2000/svg" xmlns:xlink="http://www.w3.org/1999/xlink" x="0px" y="0px"
	 viewBox="0 0 200 200" style="enable-background:new 0 0 200 200;" xml:space="preserve">
<style type="text/css">
	.st0{display:none;}
	.st1{display:inline;opacity:0.3;fill:#94E9F7;}
	.st2{display:inline;opacity:0.3;fill:#99CFFF;}
	.st3{display:inline;}
	.st4{opacity:0.1;}
	.st5{fill:#F1F5F6;}
	.st6{fill:#F2F2F2;}
	.st7{fill:#4A5055;}
	.st8{fill:#ADAEB0;}
	.st9{fill:#E0E1E4;}
	.st10{fill:#D5D7D8;}
	.st11{opacity:0.3;fill:#94E9F7;}
	.st12{opacity:0.3;fill:#99CFFF;}
	.st13{fill:#E74C3C;}
	.st14{fill:#C0392B;}
	.st15{fill:#BDC3C7;}
	.st16{fill:#CDCCCC;}
	.st17{fill:#FFFFFF;}
	.st18{enable-background:new    ;}
	.st19{fill:#EC7B72;enable-background:new    ;}
	.st20{fill:#FFCC67;enable-background:new    ;}
	.st21{fill:#98D0F1;enable-background:new    ;}
	.st22{fill:#98D0F1;}
</style>
<g class="st0">
	<path class="st1" d="M58.9,153.6c27.4,50.7,98.2,30.7,128.9-43.9c18.8-45.7-19-73.8-37.1-75.2c-34.2-2.6-40.4,12-60.7-6.6
		c-34.5-31.5-91.1,22.6-82,63C15.7,124.5,40.9,120.1,58.9,153.6z"/>
	<path class="st2" d="M95.3,26.4c48.9-18.9,102.5,67.9,94.2,107c-7.7,36.5-45.5,54.7-74.3,34.1c-31.2-22.2-45.3,4.8-74.9-12
		c-44-24.8-24.8-79.6-4.5-103.3C56.6,28.1,63,38.9,95.3,26.4z"/>
	<g class="st3">
		<g class="st4">
			<g>
				<path d="M147.5,158.9c0,3.4-2.8,6.2-6.2,6.2H63c-3.4,0-6.2-2.8-6.2-6.2V61.8c0-3.4,2.8-6.2,6.2-6.2h78.3c3.4,0,6.2,2.8,6.2,6.2
					V158.9L147.5,158.9z"/>
			</g>
		</g>
		<g>
			<path class="st5" d="M143.2,140.7c0,3.4-14.4,19.3-17.8,19.3H69.8c-3.4,0-17.3-12.6-17.3-16.1V56.6c0-3.4,2.8-6.2,6.2-6.2H137
				c3.4,0,6.2,2.8,6.2,6.2L143.2,140.7L143.2,140.7z"/>
			<g>
				<g>
					<path class="st6" d="M143.2,153.8c0,3.4-2.8,6.2-6.2,6.2H58.7c-3.4,0-6.2-2.8-6.2-6.2V56.6c0-3.4,2.8-6.2,6.2-6.2H137
						c3.4,0,6.2,2.8,6.2,6.2L143.2,153.8L143.2,153.8z"/>
				</g>
			</g>
			<path class="st7" d="M143.2,67.8H52.5V56.6c0-3.4,2.8-6.2,6.2-6.2H137c3.4,0,6.2,2.8,6.2,6.2L143.2,67.8L143.2,67.8z"/>
			<rect x="65.7" y="87.2" class="st8" width="67" height="6.2"/>
			<rect x="65.7" y="101.8" class="st8" width="67" height="6.2"/>
			<rect x="65.7" y="116.2" class="st8" width="67" height="6.2"/>
			<rect x="65.7" y="130.7" class="st8" width="67" height="6.2"/>
			<path class="st9" d="M97.6,49.1v14.6h-28c0,0,0-4,0-6c0-2,3.3-2.8,6.5-2.8c3.2,0,10.8-1.3,11.2-6.4s0.4-8.4,3.6-11.1
				c3.2-2.7,6.8-2.4,6.8-2.4v5.8c0,0-4.3-0.1-4.3,4.2S97.6,49.1,97.6,49.1z"/>
			<path class="st10" d="M97.6,49.1v14.6h28c0,0,0-4,0-6c0-2-3.3-2.8-6.5-2.8s-10.8-1.3-11.2-6.4c-0.4-5.1-0.4-8.4-3.6-11.1
				c-3.2-2.7-6.8-2.4-6.8-2.4v5.8c0,0,4.3-0.1,4.3,4.2S97.6,49.1,97.6,49.1z"/>
		</g>
	</g>
</g>
<g>
	<path class="st11" d="M141.1,46.4C113.7-4.3,42.9,15.7,12.2,90.4c-18.8,45.7,19,73.8,37.1,75.2c34.2,2.6,40.4-12,60.7,6.6
		c34.5,31.5,91.1-22.6,82-63C184.3,75.5,159.1,79.9,141.1,46.4z"/>
	<path class="st12" d="M107.3,177.2c-49.3,19.5-104-71.7-95.9-112.7c7.6-38.2,45.7-57,74.9-35.3c31.7,23.5,45.8-4.7,75.8,13
		c44.6,26.2,25.6,83.6,5.2,108.2C146.4,175.7,139.8,164.3,107.3,177.2z"/>
	<g transform="translate(0 -1028.4)">
		<path class="st4" d="M61.8,1084.9c-6.3,0-11.5,5.2-11.5,11.5v80.3c0,6.3,5.1,11.5,11.5,11.5h34.4h11.5h34.4
			c6.3,0,11.5-5.2,11.5-11.5v-80.3c0-6.3-5.1-11.5-11.5-11.5h-34.4H96.2H61.8z"/>
		<path class="st6" d="M57.9,1080.1c-6.3,0-11.5,5.1-11.5,11.5v80.3c0,6.3,5.1,11.5,11.5,11.5h34.4h11.5h34.4
			c6.3,0,11.5-5.1,11.5-11.5v-80.3c0-6.3-5.1-11.5-11.5-11.5h-34.4H92.3H57.9z"/>
		<path class="st13" d="M57.9,1080.1c-6.3,0-11.5,5.2-11.5,11.5v17.2h103.2v-17.2c0-6.3-5.1-11.5-11.5-11.5h-34.4H92.3H57.9z"/>
		<path class="st14" d="M72.2,1094.5c0,4.8-3.9,8.6-8.6,8.6s-8.6-3.9-8.6-8.6s3.9-8.6,8.6-8.6S72.2,1089.7,72.2,1094.5z"/>
		<path class="st15" d="M63.6,1068.7c-3.2,0-5.7,2.6-5.7,5.7v17.2c0,3.2,2.6,5.7,5.7,5.7c3.2,0,5.7-2.6,5.7-5.7v-17.2
			C69.3,1071.2,66.8,1068.7,63.6,1068.7z"/>
		<path class="st14" d="M141,1094.5c0,4.8-3.9,8.6-8.6,8.6s-8.6-3.9-8.6-8.6s3.9-8.6,8.6-8.6S141,1089.7,141,1094.5z"/>
		<g>
			<path class="st15" d="M132.4,1068.7c-3.2,0-5.7,2.3-5.7,5.7v17.2c0,2.9,2.6,5.7,5.7,5.7c3.2,0,5.7-2.9,5.7-5.7v-17.2
				C138.2,1071,135.6,1068.7,132.4,1068.7z"/>
			<path class="st15" d="M57.9,1126v11.5h11.5V1126H57.9z M75.1,1126v11.5h11.5V1126H75.1z M92.3,1126v11.5h11.5V1126H92.3z
				 M109.5,1126v11.5H121V1126H109.5z M126.7,1126v11.5h11.5V1126H126.7z"/>
			<path class="st15" d="M57.9,1143.2v11.5h11.5v-11.5H57.9z M75.1,1143.2v11.5h11.5v-11.5H75.1z M92.3,1143.2v11.5h11.5v-11.5H92.3
				z M109.5,1143.2v11.5H121v-11.5H109.5z M126.7,1143.2v11.5h11.5v-11.5H126.7z"/>
			<path class="st15" d="M57.9,1160.4v11.5h11.5v-11.5H57.9z M75.1,1160.4v11.5h11.5v-11.5H75.1z M92.3,1160.4v11.5h11.5v-11.5H92.3
				z M109.5,1160.4v11.5H121v-11.5H109.5z M126.7,1160.4v11.5h11.5v-11.5H126.7z"/>
		</g>
		<rect x="46.4" y="1108.8" class="st14" width="103.2" height="5.7"/>
	</g>
</g>
<g class="st0">
	<path class="st1" d="M58.9,46.4c27.4-50.7,98.2-30.7,128.9,43.9c18.8,45.7-19,73.8-37.1,75.2c-34.2,2.6-40.4-12-60.7,6.6
		c-34.5,31.5-91.1-22.6-82-63C15.7,75.5,40.9,79.9,58.9,46.4z"/>
	<path class="st2" d="M92.7,177.2c49.3,19.5,104-71.7,95.9-112.7c-7.6-38.2-45.7-57-74.9-35.3c-31.7,23.5-45.8-4.7-75.8,13
		c-44.6,26.2-25.6,83.6-5.2,108.2C53.6,175.7,60.2,164.3,92.7,177.2z"/>
	<g class="st3">
		<path class="st4" d="M133.3,69.3h-6.4v-7.5h3.4c2.3,0,4.2-1.9,4.2-4.2V46c0-2.3-1.9-4.2-4.2-4.2H72.7c-2.3,0-4.2,1.9-4.2,4.2v11.5
			c0,2.3,1.9,4.2,4.2,4.2h3.4v7.5h-6.4c-5.9,0-10.6,4.7-10.6,10.6v70.2c0,5.9,4.7,10.6,10.6,10.6h63.5c5.9,0,10.6-4.7,10.6-10.6
			V79.9C143.9,74,139.1,69.3,133.3,69.3z"/>
		<rect x="73.1" y="58.4" class="st16" width="50.7" height="9.8"/>
		<path class="st6" d="M130.3,158.2H66.7c-5.9,0-10.6-4.7-10.6-10.6V77.4c0-5.9,4.7-10.6,10.6-10.6h63.5c5.9,0,10.6,4.7,10.6,10.6
			v70.2C140.9,153.5,136.1,158.2,130.3,158.2z"/>
		<path class="st13" d="M127.3,39.3H69.7c-2.3,0-4.2,1.9-4.2,4.2v11.5c0,2.3,1.9,4.2,4.2,4.2h57.6c2.3,0,4.2-1.9,4.2-4.2V43.6
			C131.5,41.2,129.6,39.3,127.3,39.3z"/>
		<g>
			<path class="st17" d="M65.7,95.7c-0.7-3.2-1.1-6.4-1.3-9.6c-0.1-0.8-0.1-1.6-0.2-2.4c0-0.4-0.1-0.8-0.1-1.2l0-0.6l0-0.3
				c0-0.1,0-0.2,0-0.4c0-2,0.8-4,2.3-5.4c1.4-1.4,3.4-2.3,5.4-2.3c0.1,0,0.3,0,0.4,0l0.3,0l0.6,0c0.4,0,0.8,0,1.2,0.1
				c0.8,0,1.6,0.1,2.4,0.2c3.2,0.3,6.4,0.6,9.6,1.3c-3.2,0.7-6.4,1.1-9.6,1.3c-0.8,0.1-1.6,0.1-2.4,0.2c-0.4,0-0.8,0-1.2,0.1l-0.6,0
				l-0.3,0c-0.1,0-0.2,0-0.2,0c-1.2,0.1-2.3,0.6-3.2,1.5s-1.4,2-1.5,3.2c0,0.1,0,0.1,0,0.2l0,0.3l0,0.6c0,0.4,0,0.8-0.1,1.2
				c0,0.8-0.1,1.6-0.2,2.4C66.8,89.3,66.4,92.5,65.7,95.7z"/>
		</g>
		<g>
			<g class="st18">
				<path class="st14" d="M72.3,54.9c-0.7,0-1.2-0.5-1.2-1.2v-9.4c0-0.7,0.5-1.2,1.2-1.2s1.2,0.5,1.2,1.2v9.4
					C73.5,54.4,73,54.9,72.3,54.9z"/>
			</g>
			<g class="st18">
				<path class="st14" d="M79.8,54.9c-0.7,0-1.2-0.5-1.2-1.2v-9.4c0-0.7,0.5-1.2,1.2-1.2s1.2,0.5,1.2,1.2v9.4
					C81,54.4,80.5,54.9,79.8,54.9z"/>
			</g>
			<g class="st18">
				<path class="st14" d="M87.3,54.9c-0.7,0-1.2-0.5-1.2-1.2v-9.4c0-0.7,0.5-1.2,1.2-1.2s1.2,0.5,1.2,1.2v9.4
					C88.5,54.4,87.9,54.9,87.3,54.9z"/>
			</g>
			<g class="st18">
				<path class="st14" d="M94.8,54.9c-0.7,0-1.2-0.5-1.2-1.2v-9.4c0-0.7,0.5-1.2,1.2-1.2s1.2,0.5,1.2,1.2v9.4
					C96,54.4,95.4,54.9,94.8,54.9z"/>
			</g>
			<g class="st18">
				<path class="st14" d="M102.3,54.9c-0.7,0-1.2-0.5-1.2-1.2v-9.4c0-0.7,0.5-1.2,1.2-1.2s1.2,0.5,1.2,1.2v9.4
					C103.4,54.4,102.9,54.9,102.3,54.9z"/>
			</g>
			<g class="st18">
				<path class="st14" d="M109.7,54.9c-0.7,0-1.2-0.5-1.2-1.2v-9.4c0-0.7,0.5-1.2,1.2-1.2c0.7,0,1.2,0.5,1.2,1.2v9.4
					C110.9,54.4,110.4,54.9,109.7,54.9z"/>
			</g>
			<g class="st18">
				<path class="st14" d="M117.2,54.9c-0.7,0-1.2-0.5-1.2-1.2v-9.4c0-0.7,0.5-1.2,1.2-1.2c0.7,0,1.2,0.5,1.2,1.2v9.4
					C118.4,54.4,117.9,54.9,117.2,54.9z"/>
			</g>
			<g class="st18">
				<path class="st14" d="M124.7,54.9c-0.7,0-1.2-0.5-1.2-1.2v-9.4c0-0.7,0.5-1.2,1.2-1.2c0.7,0,1.2,0.5,1.2,1.2v9.4
					C125.9,54.4,125.4,54.9,124.7,54.9z"/>
			</g>
		</g>
		<g>
			<path class="st17" d="M124.6,131.4l-7.3,3.4l4.8,10.5l7.3-3.4c2.9-1.3,4.1-4.7,2.8-7.6C130.9,131.3,127.5,130.1,124.6,131.4z"/>
			<path class="st19" d="M114.8,148.6l7.3-3.4l-4.8-10.5l-7.3,3.4c-2.9,1.3-4.1,4.7-2.8,7.6C108.5,148.7,111.9,149.9,114.8,148.6z"
				/>
		</g>
		<g>
			<path class="st17" d="M94.3,114.1l-5.6,5.8l8.3,8l5.6-5.8c2.2-2.3,2.1-5.9-0.2-8.1C100.2,111.7,96.5,111.8,94.3,114.1z"/>
			<path class="st20" d="M91.4,133.7l5.6-5.8l-8.3-8l-5.6,5.8c-2.2,2.3-2.1,5.9,0.2,8.1C85.6,136,89.2,136,91.4,133.7z"/>
		</g>
		<g>
			<path class="st17" d="M82.8,107.8l7.2,3.6l5.2-10.3l-7.2-3.6c-2.8-1.4-6.3-0.3-7.7,2.6C78.8,102.9,79.9,106.3,82.8,107.8z"/>
			<path class="st21" d="M102.3,104.7l-7.2-3.6L90,111.4l7.2,3.6c2.8,1.4,6.3,0.3,7.7-2.6C106.3,109.6,105.2,106.1,102.3,104.7z"/>
		</g>
		<g>
			<path class="st17" d="M119.8,99.4l-4.3,6.8l9.8,6.1l4.3-6.8c1.7-2.7,0.9-6.2-1.8-7.9C125,95.9,121.4,96.7,119.8,99.4z"/>
			<path class="st19" d="M121,119.2l4.3-6.8l-9.8-6.1l-4.3,6.8c-1.7,2.7-0.9,6.2,1.8,7.9C115.8,122.7,119.3,121.9,121,119.2z"/>
		</g>
		<g>
			<path class="st17" d="M113,128.3l8-0.9l-1.2-11.4l-8,0.9c-3.2,0.3-5.4,3.2-5.1,6.3C107,126.3,109.9,128.6,113,128.3z"/>
			<path class="st20" d="M127.8,115.1l-8,0.9l1.2,11.4l8-0.9c3.2-0.3,5.4-3.2,5.1-6.3C133.8,117,131,114.8,127.8,115.1z"/>
		</g>
		<g>
			<path class="st17" d="M95,139.4l-7-3.9l-5.6,10.1l7,3.9c2.8,1.5,6.3,0.5,7.8-2.2C98.7,144.5,97.7,141,95,139.4z"/>
			<path class="st21" d="M75.3,141.7l7,3.9l5.6-10.1l-7-3.9c-2.8-1.5-6.3-0.5-7.8,2.2C71.5,136.6,72.5,140.1,75.3,141.7z"/>
		</g>
		<g>
			<path class="st17" d="M79.1,110.6l-7.3,3.4l4.8,10.5l7.3-3.4c2.9-1.3,4.1-4.7,2.8-7.6C85.4,110.5,82,109.3,79.1,110.6z"/>
			<path class="st19" d="M69.3,127.8l7.3-3.4L71.8,114l-7.3,3.4c-2.9,1.3-4.1,4.7-2.8,7.6C63,127.8,66.4,129.1,69.3,127.8z"/>
		</g>
		<g>
			<path class="st17" d="M114.6,83.7l-7.3,3.4l4.8,10.5l7.3-3.4c2.9-1.3,4.1-4.7,2.8-7.6C120.9,83.6,117.5,82.4,114.6,83.7z"/>
			<path class="st20" d="M104.8,100.9l7.3-3.4l-4.8-10.5l-7.3,3.4c-2.9,1.3-4.1,4.7-2.8,7.6S102,102.2,104.8,100.9z"/>
		</g>
	</g>
</g>
<g class="st0">
	<path class="st1" d="M175.2,106.7C212.4,66,159.6,17.4,71.6,21.1c-53.8,2.3-64,42.7-56.9,57.6c13.4,28.1,30.7,27.5,21.9,50.5
		c-15,39.1,64.9,63.7,100.5,41.3C166.7,151.9,150.7,133.6,175.2,106.7z"/>
	<path class="st2" d="M27.4,140C-15,108.3,49.5,30.8,93.7,21.8c41.2-8.3,77.6,14.8,69.9,46.1c-8.4,33.9,26,34.5,22.7,64.9
		c-5,45.2-70.5,51.6-104.4,44.7C47.1,170.5,55.3,161,27.4,140z"/>
	<g class="st3">
		<path class="st4" d="M145.3,49H56.7c-7.4,0-13.4,6-13.4,13.4v57.4c0,7.4,6,13.4,13.4,13.4h31.9v9.9h-8.3c-1.6,0-3,1.3-3,3v4.5
			c0,1.6,1.3,3,3,3h41.6c1.6,0,3-1.3,3-3v-4.5c0-1.6-1.3-3-3-3h-8.6v-9.9h31.9c7.4,0,13.4-6,13.4-13.4V62.4
			C158.7,55,152.7,49,145.3,49z"/>
		<rect x="86.6" y="111.9" class="st16" width="24.8" height="34.2"/>
		<path class="st6" d="M75.3,148.1v-4.5c0-1.6,1.3-3,3-3h41.6c1.6,0,3,1.3,3,3v4.5c0,1.6-1.3,3-3,3H78.3
			C76.7,151,75.3,149.7,75.3,148.1z"/>
		<path class="st7" d="M143.3,127.3H54.7c-5.5,0-9.9-4.4-9.9-9.9V59.9c0-5.5,4.4-9.9,9.9-9.9h88.6c5.5,0,9.9,4.4,9.9,9.9v57.4
			C153.3,122.8,148.8,127.3,143.3,127.3z"/>
		<path class="st6" d="M143.3,130.7H54.7c-7.4,0-13.4-6-13.4-13.4V59.9c0-7.4,6-13.4,13.4-13.4h88.6c7.4,0,13.4,6,13.4,13.4v57.4
			C156.7,124.7,150.7,130.7,143.3,130.7z M54.7,53.4c-3.6,0-6.5,2.9-6.5,6.5v57.4c0,3.6,2.9,6.5,6.5,6.5h88.6c3.6,0,6.5-2.9,6.5-6.5
			V59.9c0-3.6-2.9-6.5-6.5-6.5H54.7z"/>
		<g class="st18">
			<polygon class="st22" points="100.1,111.6 87.1,80.5 80.3,100 72.9,88.8 70.4,92.7 48.1,92.7 48.1,88.3 67.9,88.3 72.9,80.6 
				79.1,90 86.7,68 99.4,98.4 102.4,88.3 115.4,88.3 122.3,79.3 129.1,88.3 149.7,88.3 149.7,92.7 126.9,92.7 122.3,86.6 
				117.6,92.7 105.8,92.7 			"/>
		</g>
	</g>
</g>
</svg>
